<svg xmlns="http://www.w3.org/2000/svg" xmlns:xlink="http://www.w3.org/1999/xlink" viewBox="0 0 1006.59 496.79"><defs><style>.cls-1{fill:url(#linear-gradient);}.cls-2{fill:url(#linear-gradient-2);}.cls-3{fill:url(#linear-gradient-3);}.cls-4{fill:url(#linear-gradient-4);}.cls-5{fill:url(#linear-gradient-5);}.cls-6{fill:url(#linear-gradient-6);}.cls-7{fill:url(#linear-gradient-7);}.cls-8{fill:url(#linear-gradient-8);}.cls-9{fill:url(#linear-gradient-9);}.cls-10{fill:url(#linear-gradient-10);}.cls-11{fill:url(#linear-gradient-11);}.cls-12{fill:url(#linear-gradient-12);}.cls-13{fill:url(#linear-gradient-13);}.cls-14{fill:url(#linear-gradient-14);}.cls-15{fill:url(#linear-gradient-15);}.cls-16{fill:url(#linear-gradient-16);}.cls-17{fill:url(#linear-gradient-32);}</style><linearGradient id="linear-gradient" y1="394.12" x2="95.94" y2="394.12" gradientUnits="userSpaceOnUse"><stop offset="0" stop-color="#e8e3d6"/><stop offset="0.11" stop-color="#deccb7"/><stop offset="0.23" stop-color="#d7b99c"/><stop offset="0.34" stop-color="#d2ad8d"/><stop offset="0.43" stop-color="#d0a987"/><stop offset="0.73" stop-color="#e6e1d2"/><stop offset="0.8" stop-color="#ddccb7"/><stop offset="0.88" stop-color="#d5b89c"/><stop offset="0.95" stop-color="#d0ac8d"/><stop offset="1" stop-color="#cea887"/></linearGradient><linearGradient id="linear-gradient-2" x1="104.35" y1="394.05" x2="199.71" y2="394.05" xlink:href="#linear-gradient"/><linearGradient id="linear-gradient-3" x1="218.81" y1="394.12" x2="298.28" y2="394.12" xlink:href="#linear-gradient"/><linearGradient id="linear-gradient-4" x1="313.21" y1="394.34" x2="398.9" y2="394.34" xlink:href="#linear-gradient"/><linearGradient id="linear-gradient-5" x1="454.08" y1="395.44" x2="544.17" y2="395.44" xlink:href="#linear-gradient"/><linearGradient id="linear-gradient-6" x1="596.42" y1="394.16" x2="694.62" y2="394.16" xlink:href="#linear-gradient"/><linearGradient id="linear-gradient-7" x1="711.6" y1="394.23" x2="816.4" y2="394.23" xlink:href="#linear-gradient"/><linearGradient id="linear-gradient-8" x1="833.74" y1="394.12" x2="902.75" y2="394.12" xlink:href="#linear-gradient"/><linearGradient id="linear-gradient-9" x1="917.75" y1="394.12" x2="1006.59" y2="394.12" xlink:href="#linear-gradient"/><linearGradient id="linear-gradient-10" x1="380.74" y1="37.4" x2="498.2" y2="37.4" xlink:href="#linear-gradient"/><linearGradient id="linear-gradient-11" x1="506.03" y1="204.71" x2="669.86" y2="204.71" xlink:href="#linear-gradient"/><linearGradient id="linear-gradient-12" x1="334.99" y1="204.71" x2="498.82" y2="204.71" xlink:href="#linear-gradient"/><linearGradient id="linear-gradient-13" x1="334.99" y1="121.47" x2="498.82" y2="121.47" xlink:href="#linear-gradient"/><linearGradient id="linear-gradient-14" x1="506.03" y1="121.47" x2="669.86" y2="121.47" xlink:href="#linear-gradient"/><linearGradient id="linear-gradient-15" x1="506.03" y1="68.05" x2="671.6" y2="68.05" xlink:href="#linear-gradient"/><linearGradient id="linear-gradient-16" x1="230.48" y1="482.61" x2="770.63" y2="482.61" xlink:href="#linear-gradient"/><linearGradient id="linear-gradient-32" x1="500.56" y1="456.39" x2="500.56" y2="500.23" gradientUnits="userSpaceOnUse"><stop offset="0" stop-color="#d2aa85"/><stop offset="0.43" stop-color="#b67f53"/><stop offset="0.51" stop-color="#b88256"/><stop offset="0.58" stop-color="#be8b61"/><stop offset="0.64" stop-color="#c89b73"/><stop offset="0.71" stop-color="#d6b18c"/><stop offset="0.75" stop-color="#e0c19f"/><stop offset="0.8" stop-color="#d9b793"/><stop offset="0.88" stop-color="#c89b73"/><stop offset="1" stop-color="#ac6f41"/></linearGradient></defs><g id="Layer_2" data-name="Layer 2"><g id="Layer_1-2" data-name="Layer 1"><path class="cls-1" d="M40.47,340.37H56.93l39,107.5H80l-10.91-32.2H26.56l-11.63,32.2H0ZM64.4,403.82l-16.32-47.5-17.34,47.5Z"/><path class="cls-2" d="M186.17,348.2q11.27,10.76,12.51,24.44H184.49q-2.42-10.39-9.63-16.46t-20.23-6.08q-15.88,0-25.65,11.16t-9.77,34.21q0,18.88,8.82,30.63t26.31,11.75q16.1,0,24.51-12.37,4.47-6.51,6.66-17.13h14.2q-1.91,17-12.59,28.47-12.81,13.83-34.54,13.83-18.74,0-31.47-11.34-16.76-15-16.76-46.32,0-23.79,12.59-39,13.62-16.53,37.54-16.54Q174.9,337.44,186.17,348.2Z"/><path class="cls-3" d="M218.81,340.37h78.37v13.17H233v32.64h59.34v12.44H233v36.44h65.27v12.81H218.81Z"/><path class="cls-4" d="M326.9,413.18q.51,9.15,4.31,14.86,7.25,10.68,25.54,10.68a45.23,45.23,0,0,0,14.93-2.34q13-4.53,13-16.24,0-8.79-5.49-12.52t-17.42-6.36L347.24,398q-14.26-3.21-20.2-7.1-10.25-6.72-10.24-20.12,0-14.49,10-23.78t28.4-9.3q16.9,0,28.72,8.16t11.82,26.09H382.07q-1.1-8.64-4.68-13.25-6.66-8.42-22.61-8.41-12.88,0-18.52,5.41a17,17,0,0,0-5.63,12.59q0,7.9,6.58,11.56,4.32,2.35,19.54,5.86l15.08,3.44q10.91,2.49,16.83,6.8,10.24,7.54,10.24,21.88,0,17.86-13,25.54T355.73,451q-20.06,0-31.4-10.25t-11.12-27.59Z"/><path class="cls-5" d="M469.27,374.91A25.93,25.93,0,0,1,467,364.59a23,23,0,0,1,7-17.23q7-6.84,18.8-6.84,11.2,0,17.49,6.36a20.89,20.89,0,0,1,6.3,15.22,27.23,27.23,0,0,1-6.52,18.08q-3.8,4.53-12.73,10.46l19.61,23.42c1.32-3.9,2.24-6.82,2.75-8.74s1-4.63,1.57-8.09h12.52a79.88,79.88,0,0,1-5,19.8q-3.74,9.47-3.73,7.64l19.1,23.2h-17l-10.1-12.29a52.8,52.8,0,0,1-11,9.51,38,38,0,0,1-20.05,5.27q-16.76,0-24.37-9a30.82,30.82,0,0,1-7.61-20.38q0-12.22,7.39-20.42,4.54-5,16.91-12.44Q471.57,380.25,469.27,374.91ZM501,435.06a30.39,30.39,0,0,0,9-8.34L485.7,397.08q-10.32,6.89-13.47,10.54A19.55,19.55,0,0,0,467.4,421q0,8.57,6.26,13.18A22.12,22.12,0,0,0,487,438.8,25.43,25.43,0,0,0,501,435.06Zm-1-60.88a16.5,16.5,0,0,0,4.31-11.05,11.78,11.78,0,0,0-3.14-8.2,11,11,0,0,0-8.49-3.44q-8.13,0-11.27,5.42a11.83,11.83,0,0,0-1.61,6.07,16.46,16.46,0,0,0,2.45,8.56,78.41,78.41,0,0,0,8.16,10.62Q497.33,377.26,500,374.18Z"/><path class="cls-6" d="M673.26,343.44q16,8.42,19.61,29.49H678.45q-2.62-11.78-10.9-17.16t-20.86-5.37a32.71,32.71,0,0,0-25.14,11.19q-10.2,11.21-10.2,33.37,0,19.17,8.41,31.21t27.44,12q14.56,0,24.12-8.45t9.77-27.33H647.42V390.35h47.2v57.52h-9.36L681.75,434q-7.39,8.13-13.1,11.27-9.6,5.42-24.37,5.42a47.49,47.49,0,0,1-32.86-12.37q-15-15.51-15-42.59t14.63-43q13.91-15.22,36-15.22Q662.21,337.59,673.26,343.44Z"/><path class="cls-7" d="M805.71,355.74Q816.39,370,816.4,392.25q0,24.09-12.22,40Q789.83,451,763.27,451q-24.81,0-39-16.39-12.66-15.81-12.66-40,0-21.81,10.83-37.32,13.91-19.91,41.13-19.91Q792,337.44,805.71,355.74ZM792.87,424.2q8.6-13.8,8.6-31.73,0-18.95-9.92-30.51T764.44,350.4q-16.68,0-27.22,11.45t-10.54,33.77q0,17.86,9,30.11T765,438Q784.27,438,792.87,424.2Z"/><path class="cls-8" d="M833.74,340.37H848.3v94.69h54.45v12.81h-69Z"/><path class="cls-9" d="M917.75,340.37h43.54q22.19,0,34.4,15.73,10.9,14.2,10.9,36.37a72.52,72.52,0,0,1-6.44,31q-11.34,24.44-39,24.44h-43.4Zm40.62,95.06a40,40,0,0,0,12.14-1.54,26.73,26.73,0,0,0,13.91-11q4.32-6.51,6.22-16.69a63.78,63.78,0,0,0,1.1-11.27q0-20-7.94-31t-25.58-11.05H932.39v82.55Z"/><path class="cls-10" d="M498.2,74.79V0H380.74c.16.91.33,1.81.51,2.71,8.48,42.11,46,72.08,88.95,72.08Z"/><path class="cls-11" d="M669.86,167.31H602.74c-43.78,0-82.93,28.35-95.47,70.3q-.33,1.09-.63,2.19c-.21.77-.41,1.53-.61,2.31h67.12c43.77,0,82.91-28.34,95.47-70.27C669.06,170.35,669.48,168.84,669.86,167.31Z"/><path class="cls-12" d="M498.82,242.11c-.2-.79-.4-1.56-.62-2.33s-.41-1.47-.63-2.2c-12.55-41.93-51.69-70.27-95.46-70.27H335c.38,1.53.8,3,1.25,4.53,12.55,41.93,51.69,70.27,95.46,70.27Z"/><path class="cls-13" d="M498.82,84.08H431.7c-43.77,0-82.91,28.33-95.46,70.27-.45,1.49-.87,3-1.25,4.52h67.12c43.77,0,82.91-28.33,95.46-70.27q.33-1.09.63-2.19C498.42,85.63,498.62,84.85,498.82,84.08Z"/><path class="cls-14" d="M669.86,158.87c-.73-2.88-1.56-5.71-2.51-8.49h0A103.84,103.84,0,0,0,632.61,102a87.29,87.29,0,0,0-53.35-17.88H506c.2.77.4,1.53.61,2.3a103.81,103.81,0,0,0,35.19,53.46,87.66,87.66,0,0,0,54.84,19Z"/><path class="cls-15" d="M574,74.79c35.53,1.32,56.25,13.92,56.42,14a103.8,103.8,0,0,1,39.16,47.29,151.08,151.08,0,0,0-2.53-61.32,80.18,80.18,0,0,0-9.85-23.06l-1.88-3A102.42,102.42,0,0,0,595.43,4L593,3.4A121,121,0,0,0,564.55,0H506V74.79Z"/><path class="cls-16" d="M230.48,469.16h10.88a10.23,10.23,0,0,1,8.58,3.93,14.47,14.47,0,0,1,2.73,9.08,18.12,18.12,0,0,1-1.61,7.73,9.93,9.93,0,0,1-9.74,6.11H230.48Zm10.15,23.74a10.22,10.22,0,0,0,3-.38,6.71,6.71,0,0,0,3.47-2.74,11.18,11.18,0,0,0,1.55-4.17,15.28,15.28,0,0,0,.28-2.82q0-5-2-7.74t-6.39-2.76h-6.45V492.9Z"/><path class="cls-16" d="M264.9,469.16h3.68V496H264.9Z"/><path class="cls-16" d="M289,469.16h4.11L302.87,496h-4l-2.72-8H285.54l-2.9,8h-3.73ZM295,485l-4.07-11.86L286.59,485Z"/><path class="cls-16" d="M312.82,469.16H318l7.71,22.7,7.65-22.7h5.16V496h-3.46V480.16c0-.54,0-1.45,0-2.72s0-2.62,0-4.07L327.51,496h-3.6l-7.71-22.64v.82c0,.66,0,1.66.05,3s0,2.34,0,3V496h-3.47Z"/><path class="cls-16" d="M372.93,473a14.82,14.82,0,0,1,2.67,9.12,15.89,15.89,0,0,1-3.06,10q-3.57,4.68-10.21,4.68-6.19,0-9.74-4.09a15.45,15.45,0,0,1-3.16-10,15.91,15.91,0,0,1,2.7-9.32q3.48-5,10.27-5Q369.51,468.43,372.93,473Zm-3.21,17.09a14.64,14.64,0,0,0,2.15-7.92,11.32,11.32,0,0,0-2.48-7.62,8.46,8.46,0,0,0-6.77-2.88,8.78,8.78,0,0,0-6.79,2.86q-2.64,2.85-2.64,8.43a12.36,12.36,0,0,0,2.26,7.52c1.51,2,3.94,3.06,7.32,3.06Q367.57,493.54,369.72,490.09Z"/><path class="cls-16" d="M386.66,469.16H391l13.55,21.75V469.16H408V496h-4.08l-13.76-21.73V496h-3.47Z"/><path class="cls-16" d="M420.59,469.16h10.87a10.26,10.26,0,0,1,8.59,3.93,14.53,14.53,0,0,1,2.72,9.08,18.12,18.12,0,0,1-1.61,7.73q-2.84,6.11-9.74,6.11H420.59Zm10.14,23.74a10.22,10.22,0,0,0,3-.38,6.71,6.71,0,0,0,3.47-2.74,11.35,11.35,0,0,0,1.56-4.17,16.13,16.13,0,0,0,.27-2.82q0-5-2-7.74t-6.39-2.76h-6.45V492.9Z"/><path class="cls-16" d="M456.56,487.34a7.2,7.2,0,0,0,1.08,3.71c1.2,1.78,3.33,2.67,6.37,2.67a11.27,11.27,0,0,0,3.73-.58Q471,492,471,489.08a3.48,3.48,0,0,0-1.37-3.12,13.68,13.68,0,0,0-4.35-1.59l-3.63-.83a16.06,16.06,0,0,1-5-1.77,5.6,5.6,0,0,1-2.56-5,7.73,7.73,0,0,1,2.5-5.94q2.5-2.32,7.09-2.32a12.31,12.31,0,0,1,7.17,2q3,2,2.95,6.51h-3.41a6.88,6.88,0,0,0-1.17-3.31q-1.67-2.1-5.65-2.1-3.21,0-4.62,1.35a4.23,4.23,0,0,0-1.41,3.15,3.06,3.06,0,0,0,1.65,2.88,23.59,23.59,0,0,0,4.87,1.46l3.77.86A11.66,11.66,0,0,1,472,483a6.37,6.37,0,0,1,2.56,5.47q0,4.46-3.24,6.37a14.55,14.55,0,0,1-7.54,1.92q-5,0-7.84-2.56a8.65,8.65,0,0,1-2.78-6.89Z"/><path class="cls-16" d="M505.58,477.79a6.58,6.58,0,0,1-.58-2.58,5.75,5.75,0,0,1,1.76-4.3,6.43,6.43,0,0,1,4.69-1.71,5.86,5.86,0,0,1,4.37,1.59,5.21,5.21,0,0,1,1.57,3.8,6.81,6.81,0,0,1-1.62,4.51,15.61,15.61,0,0,1-3.18,2.62l4.89,5.84c.33-1,.56-1.7.69-2.18a18.73,18.73,0,0,0,.39-2h3.13a19.58,19.58,0,0,1-1.25,4.94c-.62,1.58-.93,2.22-.93,1.91l4.77,5.8H520l-2.52-3.07a13.28,13.28,0,0,1-2.74,2.37,9.46,9.46,0,0,1-5,1.32c-2.79,0-4.81-.76-6.08-2.26a7.67,7.67,0,0,1-1.9-5.09,7.35,7.35,0,0,1,1.84-5.1,20.85,20.85,0,0,1,4.22-3.1A13.84,13.84,0,0,1,505.58,477.79Zm7.92,15a7.72,7.72,0,0,0,2.25-2.08l-6.07-7.4a18,18,0,0,0-3.36,2.63,4.88,4.88,0,0,0-1.21,3.34,3.82,3.82,0,0,0,1.57,3.29,5.49,5.49,0,0,0,3.33,1.15A6.36,6.36,0,0,0,513.5,492.81Zm-.25-15.2a4.15,4.15,0,0,0,1.07-2.76,2.93,2.93,0,0,0-.78-2.05,2.75,2.75,0,0,0-2.12-.86,3,3,0,0,0-2.82,1.35,3.08,3.08,0,0,0-.4,1.52,4.19,4.19,0,0,0,.61,2.14,20.55,20.55,0,0,0,2,2.65A14.23,14.23,0,0,0,513.25,477.61Z"/><path class="cls-16" d="M553.61,469.16,558.67,491l6.07-21.84h4L574.75,491l5.07-21.84h4l-7,26.85h-3.82l-6.2-22.26L560.5,496h-3.82l-7-26.85Z"/><path class="cls-16" d="M600.33,469.16h4.11L614.18,496h-4l-2.73-8H596.86L594,496h-3.73Zm6,15.85-4.07-11.86L597.9,485Z"/><path class="cls-16" d="M641,469.16v3.2h-9V496h-3.69V472.36h-9v-3.2Z"/><path class="cls-16" d="M670.28,471.12a9.48,9.48,0,0,1,3.13,6.1h-3.55a7.35,7.35,0,0,0-2.4-4.11,7.63,7.63,0,0,0-5.05-1.52,8.1,8.1,0,0,0-6.41,2.79q-2.44,2.79-2.44,8.54a12.46,12.46,0,0,0,2.2,7.65,7.69,7.69,0,0,0,6.57,2.93,6.94,6.94,0,0,0,6.12-3.09,11.61,11.61,0,0,0,1.67-4.27h3.54a12.16,12.16,0,0,1-3.14,7.11,11.2,11.2,0,0,1-8.63,3.45,11.37,11.37,0,0,1-7.85-2.83q-4.18-3.75-4.19-11.57a14.77,14.77,0,0,1,3.15-9.74,11.48,11.48,0,0,1,9.37-4.13Q667.47,468.43,670.28,471.12Z"/><path class="cls-16" d="M684.91,469.16h3.67v11.09h14V469.16h3.68V496h-3.68V483.45h-14V496h-3.67Z"/><path class="cls-16" d="M718.93,469.16H738.5v3.29h-16v8.15h14.82v3.11H722.47v9.1h16.3V496H718.93Z"/><path class="cls-16" d="M752.65,487.34a7.4,7.4,0,0,0,1.08,3.71c1.21,1.78,3.33,2.67,6.38,2.67a11.25,11.25,0,0,0,3.72-.58q3.25-1.14,3.26-4.06a3.5,3.5,0,0,0-1.37-3.12,13.88,13.88,0,0,0-4.35-1.59l-3.64-.83a16.16,16.16,0,0,1-5-1.77,5.6,5.6,0,0,1-2.56-5,7.73,7.73,0,0,1,2.5-5.94q2.5-2.32,7.09-2.32a12.27,12.27,0,0,1,7.17,2q3,2,3,6.51h-3.42a6.68,6.68,0,0,0-1.17-3.31q-1.66-2.1-5.65-2.1-3.21,0-4.62,1.35a4.23,4.23,0,0,0-1.41,3.15,3.06,3.06,0,0,0,1.65,2.88,23.75,23.75,0,0,0,4.88,1.46l3.76.86a11.51,11.51,0,0,1,4.2,1.7,6.37,6.37,0,0,1,2.56,5.47q0,4.46-3.24,6.37a14.53,14.53,0,0,1-7.54,1.92q-5,0-7.84-2.56a8.65,8.65,0,0,1-2.78-6.89Z"/><path class="cls-17" d="M230.78,495.71V469.46h10.58a10,10,0,0,1,8.35,3.82,14.26,14.26,0,0,1,2.66,8.89,17.89,17.89,0,0,1-1.58,7.61c-1.85,4-4.95,5.93-9.47,5.93Zm3.06-2.51h6.79a10.2,10.2,0,0,0,3.12-.4,6.94,6.94,0,0,0,3.63-2.86,11.46,11.46,0,0,0,1.6-4.28,16.75,16.75,0,0,0,.28-2.87c0-3.37-.69-6-2-7.92s-3.61-2.88-6.63-2.88h-6.75Z"/><rect class="cls-17" x="265.2" y="469.46" width="3.07" height="26.24"/><path class="cls-17" d="M299.1,495.71l-2.73-8h-11l-2.9,8h-3.09l9.88-26.25h3.7l9.52,26.25Zm-12.94-10.4h9.25l-4.49-13.06Z"/><path class="cls-17" d="M335.39,495.71V480.16c0-.54,0-1.45,0-2.71s0-2.63,0-4.08l-.59-.1-7.59,22.44h-3.17l-7.64-22.44-.58.1v.82c0,.66,0,1.66.05,3s0,2.33,0,3v15.55h-2.87V469.46h4.69l7.93,23.33,7.87-23.33h4.64v26.25Z"/><path class="cls-17" d="M362.33,496.49a12,12,0,0,1-9.51-4,15.2,15.2,0,0,1-3.09-9.78,15.59,15.59,0,0,1,2.65-9.14c2.24-3.22,5.62-4.85,10-4.85,4.62,0,8.08,1.5,10.29,4.45a14.59,14.59,0,0,1,2.61,8.94,15.76,15.76,0,0,1-3,9.81C370,495,366.63,496.49,362.33,496.49Zm.29-25.12a9.16,9.16,0,0,0-7,2.95c-1.79,2-2.71,4.86-2.71,8.64a12.68,12.68,0,0,0,2.32,7.7c1.56,2.11,4.1,3.18,7.56,3.18,3.3,0,5.72-1.21,7.21-3.59a15,15,0,0,0,2.19-8.08,11.63,11.63,0,0,0-2.55-7.81A8.76,8.76,0,0,0,362.62,471.37Z"/><polygon class="cls-17" points="404.06 495.71 389.83 473.25 389.83 495.71 386.96 495.71 386.96 469.46 390.79 469.46 404.81 491.96 404.81 469.46 407.67 469.46 407.67 495.71 404.06 495.71"/><path class="cls-17" d="M420.89,495.71V469.46h10.57a10,10,0,0,1,8.35,3.82,14.26,14.26,0,0,1,2.66,8.89,17.89,17.89,0,0,1-1.58,7.61c-1.85,4-4.95,5.93-9.47,5.93Zm3.05-2.51h6.79a10.16,10.16,0,0,0,3.12-.4,6.94,6.94,0,0,0,3.63-2.86,11.46,11.46,0,0,0,1.6-4.28,15.8,15.8,0,0,0,.28-2.87c0-3.37-.69-6-2-7.92s-3.61-2.88-6.63-2.88h-6.75Z"/><path class="cls-17" d="M463.76,496.49c-3.25,0-5.82-.83-7.64-2.48a8.29,8.29,0,0,1-2.68-6.37h2.84a7.39,7.39,0,0,0,1.11,3.58c1.26,1.86,3.49,2.8,6.62,2.8a11.57,11.57,0,0,0,3.83-.6c2.29-.8,3.45-2.26,3.45-4.34a3.79,3.79,0,0,0-1.5-3.37,14,14,0,0,0-4.45-1.64l-3.63-.82a16.4,16.4,0,0,1-4.95-1.73,5.28,5.28,0,0,1-2.42-4.77,7.47,7.47,0,0,1,2.41-5.72c1.6-1.49,3.91-2.24,6.88-2.24a12.12,12.12,0,0,1,7,2c1.81,1.25,2.75,3.26,2.82,6H470.6a6.88,6.88,0,0,0-1.2-3.19c-1.16-1.47-3.14-2.22-5.88-2.22-2.21,0-3.84.48-4.83,1.44a4.54,4.54,0,0,0-1.5,3.36,3.39,3.39,0,0,0,1.8,3.15,24.7,24.7,0,0,0,5,1.49l3.76.86a11.17,11.17,0,0,1,4.09,1.64,6,6,0,0,1,2.44,5.23c0,2.88-1,4.88-3.1,6.12A14.33,14.33,0,0,1,463.76,496.49Z"/><path class="cls-17" d="M509.77,496.33c-2.68,0-4.65-.73-5.85-2.15a7.41,7.41,0,0,1-1.83-4.9,7.06,7.06,0,0,1,1.77-4.9,20.22,20.22,0,0,1,4.15-3.05l.31-.18-.24-.27a13.31,13.31,0,0,1-2.22-3.21,6.16,6.16,0,0,1-.56-2.46,5.48,5.48,0,0,1,1.67-4.09,6.19,6.19,0,0,1,4.48-1.62,5.6,5.6,0,0,1,4.16,1.5,5,5,0,0,1,1.48,3.59,6.55,6.55,0,0,1-1.55,4.32,15.35,15.35,0,0,1-3.12,2.56l-.28.18,5.46,6.52.17-.51c.33-1,.56-1.72.69-2.2s.23-1,.36-1.8h2.53a19.75,19.75,0,0,1-1.19,4.53,11,11,0,0,1-.81,1.87l-.21.2.19.2,4.32,5.25h-3.47l-2.65-3.23-.23.25a13,13,0,0,1-2.68,2.32A9.15,9.15,0,0,1,509.77,496.33Zm-.25-13.25a18.87,18.87,0,0,0-3.43,2.68,5.24,5.24,0,0,0-1.28,3.54,4.13,4.13,0,0,0,1.69,3.53A5.85,5.85,0,0,0,510,494a6.68,6.68,0,0,0,3.65-1,8,8,0,0,0,2.34-2.17l.12-.18-6.38-7.79Zm1.9-11.44a3.29,3.29,0,0,0-3.08,1.5,3.33,3.33,0,0,0-.44,1.67,4.36,4.36,0,0,0,.66,2.29,19,19,0,0,0,2.07,2.69l.17.21.22-.16a13.92,13.92,0,0,0,2.45-2,4.38,4.38,0,0,0,1.15-2.95,3.23,3.23,0,0,0-.86-2.25A3,3,0,0,0,511.42,471.64Z"/><polygon class="cls-17" points="573.15 495.71 566.73 472.63 560.27 495.71 556.91 495.71 550.05 469.46 553.38 469.46 558.38 491.07 558.96 491.08 564.97 469.46 568.46 469.46 574.47 491.08 575.05 491.07 580.05 469.46 583.41 469.46 576.51 495.71 573.15 495.71"/><path class="cls-17" d="M610.41,495.71l-2.72-8h-11l-2.91,8h-3.08l9.88-26.25h3.69l9.52,26.25Zm-12.94-10.4h9.25l-4.48-13.06Z"/><polygon class="cls-17" points="628.56 495.71 628.56 472.06 619.52 472.06 619.52 469.46 640.7 469.46 640.7 472.06 631.65 472.06 631.65 495.71 628.56 495.71"/><path class="cls-17" d="M661.89,496.4a11.13,11.13,0,0,1-7.65-2.76c-2.71-2.42-4.09-6.24-4.09-11.34a14.56,14.56,0,0,1,3.08-9.55,11.22,11.22,0,0,1,9.14-4c3.3,0,5.89.88,7.7,2.61a9.28,9.28,0,0,1,3,5.58h-3a7.71,7.71,0,0,0-2.45-4,7.94,7.94,0,0,0-5.24-1.59,8.42,8.42,0,0,0-6.63,2.89c-1.67,1.91-2.52,4.85-2.52,8.74a12.76,12.76,0,0,0,2.26,7.83,8,8,0,0,0,6.81,3.05,7.23,7.23,0,0,0,6.37-3.22,11.7,11.7,0,0,0,1.66-4.14h3a11.81,11.81,0,0,1-3,6.6A10.94,10.94,0,0,1,661.89,496.4Z"/><polygon class="cls-17" points="702.84 495.71 702.84 483.15 688.28 483.15 688.28 495.71 685.21 495.71 685.21 469.46 688.28 469.46 688.28 480.56 702.84 480.56 702.84 469.46 705.92 469.46 705.92 495.71 702.84 495.71"/><polygon class="cls-17" points="719.23 495.71 719.23 469.46 738.2 469.46 738.2 472.15 722.17 472.15 722.17 480.9 736.99 480.9 736.99 483.41 722.17 483.41 722.17 493.11 738.47 493.11 738.47 495.71 719.23 495.71"/><path class="cls-17" d="M759.85,496.49c-3.24,0-5.81-.83-7.64-2.48a8.29,8.29,0,0,1-2.68-6.37h2.84a7.5,7.5,0,0,0,1.11,3.58c1.26,1.86,3.49,2.8,6.63,2.8a11.55,11.55,0,0,0,3.82-.6c2.29-.8,3.46-2.26,3.46-4.34a3.81,3.81,0,0,0-1.5-3.37,14.12,14.12,0,0,0-4.46-1.64l-3.63-.82a16.51,16.51,0,0,1-4.95-1.73,5.28,5.28,0,0,1-2.42-4.77,7.47,7.47,0,0,1,2.41-5.72c1.6-1.49,3.92-2.24,6.88-2.24a12.1,12.1,0,0,1,7,2c1.81,1.25,2.76,3.26,2.82,6h-2.85a6.77,6.77,0,0,0-1.19-3.19c-1.17-1.47-3.15-2.22-5.89-2.22-2.21,0-3.84.48-4.83,1.44a4.54,4.54,0,0,0-1.5,3.36,3.39,3.39,0,0,0,1.8,3.15,24.7,24.7,0,0,0,5,1.49l3.76.86a11.3,11.3,0,0,1,4.1,1.64,6,6,0,0,1,2.43,5.23c0,2.88-1,4.88-3.09,6.12A14.36,14.36,0,0,1,759.85,496.49Z"/></g></g></svg>