<svg xmlns="http://www.w3.org/2000/svg" xmlns:xlink="http://www.w3.org/1999/xlink" viewBox="0 0 224.6 161.54"><defs><style>.cls-1{fill:url(#linear-gradient);}.cls-2{fill:url(#linear-gradient-2);}.cls-3{fill:url(#linear-gradient-3);}.cls-4{fill:url(#linear-gradient-4);}.cls-5{fill:url(#linear-gradient-5);}.cls-6{fill:url(#linear-gradient-6);}</style><linearGradient id="linear-gradient" x1="73.93" y1="-62.95" x2="56.86" y2="292.69" gradientUnits="userSpaceOnUse"><stop offset="0" stop-color="#e8e3d6"/><stop offset="0.11" stop-color="#deccb7"/><stop offset="0.23" stop-color="#d7b99c"/><stop offset="0.34" stop-color="#d2ad8d"/><stop offset="0.43" stop-color="#d0a987"/><stop offset="0.73" stop-color="#e6e1d2"/><stop offset="0.8" stop-color="#ddccb7"/><stop offset="0.88" stop-color="#d5b89c"/><stop offset="0.95" stop-color="#d0ac8d"/><stop offset="1" stop-color="#cea887"/></linearGradient><linearGradient id="linear-gradient-2" x1="178.12" y1="-57.95" x2="161.05" y2="297.69" xlink:href="#linear-gradient"/><linearGradient id="linear-gradient-3" x1="64.26" y1="-63.41" x2="47.18" y2="292.22" xlink:href="#linear-gradient"/><linearGradient id="linear-gradient-4" x1="61.6" y1="-63.54" x2="44.53" y2="292.09" xlink:href="#linear-gradient"/><linearGradient id="linear-gradient-5" x1="175.46" y1="-58.07" x2="158.39" y2="297.56" xlink:href="#linear-gradient"/><linearGradient id="linear-gradient-6" x1="174" y1="-58.14" x2="156.93" y2="297.49" xlink:href="#linear-gradient"/></defs><g id="Layer_2" data-name="Layer 2"><g id="Layer_1-2" data-name="Layer 1"><path class="cls-1" d="M108.9,49.91V0H30.52c.11.61.23,1.21.35,1.81,5.65,28.1,30.68,48.1,59.34,48.1Z"/><path class="cls-2" d="M223.44,111.64H178.65c-29.21,0-55.33,18.91-63.7,46.9l-.42,1.46c-.14.52-.28,1-.41,1.54h44.79c29.2,0,55.32-18.9,63.69-46.88C222.9,113.66,223.18,112.65,223.44,111.64Z"/><path class="cls-3" d="M109.31,161.54c-.13-.52-.26-1-.41-1.55l-.42-1.47c-8.37-28-34.49-46.88-63.7-46.88H0c.25,1,.53,2,.83,3,8.38,28,34.49,46.88,63.7,46.88Z"/><path class="cls-4" d="M109.31,56.1H64.53C35.32,56.1,9.2,75,.83,103c-.3,1-.58,2-.83,3H44.78c29.21,0,55.33-18.9,63.7-46.88l.42-1.47C109.05,57.14,109.18,56.62,109.31,56.1Z"/><path class="cls-5" d="M223.44,106q-.74-2.88-1.68-5.66h0A69.34,69.34,0,0,0,198.58,68,58.2,58.2,0,0,0,163,56.1H114.12c.13.51.27,1,.41,1.54A69.2,69.2,0,0,0,138,93.3,58.48,58.48,0,0,0,174.6,106Z"/><path class="cls-6" d="M159.48,49.91c23.71.88,37.53,9.28,37.65,9.35a69.24,69.24,0,0,1,26.12,31.56,100.5,100.5,0,0,0-1.68-40.91A53.25,53.25,0,0,0,215,34.52l-1.25-2a68.3,68.3,0,0,0-40-29.85c-.53-.15-1.06-.28-1.59-.41a80.69,80.69,0,0,0-19-2.27h-39V49.91Z"/></g></g></svg>