<svg xmlns="http://www.w3.org/2000/svg" xmlns:xlink="http://www.w3.org/1999/xlink" viewBox="0 0 1089.71 488.26"><defs><style>.cls-1{fill:url(#linear-gradient);}.cls-2{fill:url(#linear-gradient-2);}.cls-3{fill:url(#linear-gradient-3);}.cls-4{fill:url(#linear-gradient-4);}.cls-5{fill:url(#linear-gradient-5);}.cls-6{fill:url(#linear-gradient-6);}.cls-7{fill:url(#linear-gradient-7);}.cls-8{fill:url(#linear-gradient-8);}.cls-9{fill:url(#linear-gradient-9);}.cls-10{fill:url(#linear-gradient-10);}.cls-11{fill:url(#linear-gradient-11);}.cls-12{fill:url(#linear-gradient-12);}.cls-13{fill:url(#linear-gradient-13);}.cls-14{fill:url(#linear-gradient-14);}.cls-15{fill:url(#linear-gradient-15);}</style><linearGradient id="linear-gradient" y1="426.66" x2="103.86" y2="426.66" gradientUnits="userSpaceOnUse"><stop offset="0" stop-color="#e8e3d6"/><stop offset="0.11" stop-color="#deccb7"/><stop offset="0.23" stop-color="#d7b99c"/><stop offset="0.34" stop-color="#d2ad8d"/><stop offset="0.43" stop-color="#d0a987"/><stop offset="0.73" stop-color="#e6e1d2"/><stop offset="0.8" stop-color="#ddccb7"/><stop offset="0.88" stop-color="#d5b89c"/><stop offset="0.95" stop-color="#d0ac8d"/><stop offset="1" stop-color="#cea887"/></linearGradient><linearGradient id="linear-gradient-2" x1="112.97" y1="426.58" x2="216.2" y2="426.58" xlink:href="#linear-gradient"/><linearGradient id="linear-gradient-3" x1="236.88" y1="426.66" x2="322.91" y2="426.66" xlink:href="#linear-gradient"/><linearGradient id="linear-gradient-4" x1="339.07" y1="426.9" x2="431.84" y2="426.9" xlink:href="#linear-gradient"/><linearGradient id="linear-gradient-5" x1="491.58" y1="428.09" x2="589.1" y2="428.09" xlink:href="#linear-gradient"/><linearGradient id="linear-gradient-6" x1="645.66" y1="426.7" x2="751.98" y2="426.7" xlink:href="#linear-gradient"/><linearGradient id="linear-gradient-7" x1="770.36" y1="426.78" x2="883.81" y2="426.78" xlink:href="#linear-gradient"/><linearGradient id="linear-gradient-8" x1="902.58" y1="426.66" x2="977.29" y2="426.66" xlink:href="#linear-gradient"/><linearGradient id="linear-gradient-9" x1="993.53" y1="426.66" x2="1089.71" y2="426.66" xlink:href="#linear-gradient"/><linearGradient id="linear-gradient-10" x1="482.6" y1="-102.13" x2="454.91" y2="474.88" xlink:href="#linear-gradient"/><linearGradient id="linear-gradient-11" x1="651.64" y1="-94.02" x2="623.95" y2="482.99" xlink:href="#linear-gradient"/><linearGradient id="linear-gradient-12" x1="466.91" y1="-102.88" x2="439.21" y2="474.12" xlink:href="#linear-gradient"/><linearGradient id="linear-gradient-13" x1="462.59" y1="-103.09" x2="434.89" y2="473.92" xlink:href="#linear-gradient"/><linearGradient id="linear-gradient-14" x1="647.33" y1="-94.22" x2="619.63" y2="482.78" xlink:href="#linear-gradient"/><linearGradient id="linear-gradient-15" x1="644.96" y1="-94.34" x2="617.26" y2="482.67" xlink:href="#linear-gradient"/></defs><g id="Layer_2" data-name="Layer 2"><g id="Layer_1-2" data-name="Layer 1"><path class="cls-1" d="M43.81,368.47H61.64l42.22,116.38H86.59L74.79,450h-46l-12.6,34.86H0Zm25.91,68.69L52.05,385.74,33.27,437.16Z"/><path class="cls-2" d="M201.54,377q12.21,11.64,13.55,26.46H199.72q-2.61-11.25-10.42-17.82T167.4,379q-17.19,0-27.77,12.08t-10.58,37q0,20.43,9.55,33.15T167.08,474q17.43,0,26.54-13.39,4.83-7,7.21-18.54H216.2q-2.07,18.39-13.63,30.82-13.86,15-37.39,15-20.28,0-34.07-12.28Q113,459.35,113,425.43q0-25.74,13.63-42.22,14.73-17.91,40.64-17.91Q189.33,365.3,201.54,377Z"/><path class="cls-3" d="M236.88,368.47h84.84v14.26H252.24v35.34h64.25v13.46H252.24V471h70.67v13.86h-86Z"/><path class="cls-4" d="M353.89,447.3q.56,9.9,4.67,16.08,7.85,11.56,27.65,11.57a49,49,0,0,0,16.16-2.54q14.1-4.91,14.1-17.58,0-9.51-5.94-13.55t-18.85-6.89l-15.77-3.57q-15.45-3.48-21.86-7.68-11.1-7.29-11.1-21.79,0-15.69,10.86-25.75t30.74-10.06q18.3,0,31.09,8.84t12.8,28.24H413.62q-1.19-9.35-5.07-14.34-7.21-9.11-24.48-9.11-13.95,0-20,5.86a18.34,18.34,0,0,0-6.1,13.63q0,8.55,7.13,12.51,4.67,2.55,21.15,6.34l16.32,3.73q11.81,2.68,18.22,7.36,11.08,8.16,11.09,23.69,0,19.33-14.06,27.65t-32.68,8.32q-21.71,0-34-11.09t-12-29.87Z"/><path class="cls-5" d="M508,405.87a28.21,28.21,0,0,1-2.49-11.17,25,25,0,0,1,7.6-18.66q7.61-7.41,20.36-7.41,12.13,0,18.94,6.89A22.64,22.64,0,0,1,559.23,392a29.51,29.51,0,0,1-7.05,19.57q-4.12,4.92-13.78,11.33l21.23,25.35q2.13-6.33,3-9.47t1.7-8.75h13.55a86.27,86.27,0,0,1-5.39,21.43q-4,10.26-4,8.28l20.68,25.11H570.72l-10.93-13.31a57.36,57.36,0,0,1-11.89,10.3,41.11,41.11,0,0,1-21.7,5.71q-18.15,0-26.39-9.79a33.35,33.35,0,0,1-8.23-22.06q0-13.23,8-22.11,4.91-5.38,18.3-13.46Q510.52,411.66,508,405.87ZM542.36,471a33.26,33.26,0,0,0,9.74-9l-26.3-32.09q-11.17,7.45-14.58,11.41a21.19,21.19,0,0,0-5.23,14.5q0,9.27,6.78,14.26a24,24,0,0,0,14.46,5A27.59,27.59,0,0,0,542.36,471Zm-1.11-65.92a17.83,17.83,0,0,0,4.67-12,12.69,12.69,0,0,0-3.4-8.87,11.87,11.87,0,0,0-9.19-3.72q-8.8,0-12.2,5.86a12.83,12.83,0,0,0-1.75,6.57,17.76,17.76,0,0,0,2.66,9.27,85.47,85.47,0,0,0,8.83,11.49Q538.4,408.4,541.25,405.07Z"/><path class="cls-6" d="M728.85,371.8q17.34,9.12,21.23,31.93H734.47q-2.85-12.75-11.8-18.58t-22.58-5.82a35.37,35.37,0,0,0-27.21,12.12q-11.05,12.12-11.06,36.12,0,20.76,9.12,33.79t29.7,13q15.76,0,26.11-9.15t10.57-29.59H700.88V422.58H752v62.27H741.84l-3.8-15q-8,8.79-14.18,12.2-10.38,5.87-26.38,5.86-20.68,0-35.58-13.39-16.23-16.79-16.24-46.1t15.85-46.51q15-16.47,39-16.48Q716.89,365.46,728.85,371.8Z"/><path class="cls-7" d="M872.24,385.11q11.57,15.45,11.57,39.53,0,26.07-13.23,43.34Q855,488.26,826.29,488.26q-26.85,0-42.22-17.75-13.71-17.11-13.71-43.25,0-23.61,11.72-40.41,15.06-21.54,44.53-21.55Q857.42,365.3,872.24,385.11Zm-13.9,74.11q9.3-14.93,9.31-34.34,0-20.52-10.74-33t-29.35-12.51q-18.06,0-29.47,12.4t-11.41,36.56q0,19.32,9.78,32.6t31.73,13.27Q849,474.16,858.34,459.22Z"/><path class="cls-8" d="M902.58,368.47h15.77V471h58.94v13.86H902.58Z"/><path class="cls-9" d="M993.53,368.47h47.14q24,0,37.23,17,11.8,15.36,11.81,39.37a78.4,78.4,0,0,1-7,33.51q-12.27,26.46-42.22,26.46h-47Zm44,102.91a43.56,43.56,0,0,0,13.15-1.66,29,29,0,0,0,15-11.88q4.68-7.05,6.74-18.07a69,69,0,0,0,1.18-12.2q0-21.61-8.59-33.59t-27.69-12h-28v89.36Z"/><path class="cls-10" d="M539.34,81V0H412.17c.18,1,.37,2,.56,2.93,9.18,45.59,49.79,78,96.29,78Z"/><path class="cls-11" d="M725.17,181.13H652.51c-47.4,0-89.78,30.69-103.35,76.1-.24.79-.47,1.58-.68,2.37s-.45,1.66-.66,2.5h72.66c47.38,0,89.75-30.68,103.34-76.07Q724.55,183.6,725.17,181.13Z"/><path class="cls-12" d="M540,262.1c-.21-.85-.43-1.68-.67-2.53s-.45-1.58-.68-2.37c-13.59-45.4-56-76.07-103.35-76.07H362.65q.63,2.48,1.35,4.9c13.59,45.39,56,76.07,103.35,76.07Z"/><path class="cls-13" d="M540,91H467.35C420,91,377.59,121.69,364,167.09q-.72,2.43-1.35,4.9h72.66c47.39,0,89.76-30.68,103.35-76.08.23-.78.46-1.57.68-2.37S539.8,91.86,540,91Z"/><path class="cls-14" d="M725.17,172c-.78-3.12-1.69-6.19-2.72-9.19h0a112.43,112.43,0,0,0-37.61-52.41A94.41,94.41,0,0,0,627.09,91H547.82q.31,1.24.66,2.49a112.29,112.29,0,0,0,38.09,57.87A94.87,94.87,0,0,0,645.93,172Z"/><path class="cls-15" d="M621.41,81C659.87,82.4,682.3,96,682.49,96.15a112.39,112.39,0,0,1,42.39,51.2A163.81,163.81,0,0,0,722.14,81a86.52,86.52,0,0,0-10.67-25l-2-3.23c-14.85-23.63-37.88-41.21-64.85-48.43L642,3.68A131.41,131.41,0,0,0,611.16,0H547.82V81Z"/></g></g></svg>